<svg class="st-sketch" viewBox="0 0 1000 560" role="img" aria-label="Рукописный скетч «тулзы — это сложно»: доверенный харнесс-драйвер по одну сторону границы доверия, недоверенная VM — по другую; четыре тулзы — todo, чтение/запись файлов, генерация картинок, py-eval — чьи состояния, секреты и выводы оказываются по разные стороны, когда появляется программное использование тулзов." font-family="'Excalifont','Caveat','Segoe Print','Comic Sans MS',cursive"><defs><pattern id="exec-dots" width="22" height="22" patternUnits="userSpaceOnUse"><circle cx="11" cy="11" r="1.1" fill="#2E333C"></circle></pattern></defs><rect width="1000" height="560" fill="#121419"></rect><rect width="1000" height="560" fill="url(#exec-dots)"></rect><text x="305" y="50" font-size="30" fill="#DBD8CF" text-anchor="middle" letter-spacing="2" stroke="#DBD8CF" stroke-width="0.8">ТУЛЗЫ — ЭТО СЛОЖНО</text><path d="M61.5 62.8C207.9 65.3 432.8 60.1 550.6 61.1M60.4 61.8C251.8 59.8 429.8 65.1 548.8 62.8" fill="none" stroke="#DBD8CF" stroke-width="2" stroke-linecap="round"></path><rect x="136.5" y="81.5" width="212" height="79" rx="0" fill="#1A1E25"></rect><path d="M134.1 80.5C220.1 79.1 287.8 83.6 351.3 80.5M132.3 79.2C232.6 78.9 304.1 80.9 349.8 78.9M350.5 77.6C348.3 113.9 350.2 135.2 351.2 161M348.9 78.2C349.9 105.9 349.5 148.2 349.2 163.4M351.6 161.2C252.3 162.6 194.5 163.8 133.8 161.3M351.5 161.6C246.9 161.2 184.3 159.7 133.4 162.4M133.7 162.2C134.1 124 133.4 99.6 136.5 78.2M134.5 163.6C133.5 131.4 134.4 99.6 136.3 79.9" fill="none" stroke="#DBD8CF" stroke-width="1.5" stroke-linecap="round"></path><text x="155" y="131" font-size="26" fill="#DBD8CF">DRIVER</text><g transform="translate(316 125) scale(1.35) translate(-316 -125)"><ellipse cx="316" cy="125" rx="13" ry="13" fill="#1A1E25"></ellipse><path d="M327.2 129.4Q325.6 133.7 320.8 136Q316 138.3 311.5 136.3Q307 134.2 304.7 129.6Q302.5 125 304.4 120.4Q306.4 115.8 311.2 114Q316 112.3 320.8 113.9Q325.7 115.5 327.3 120.3Q328.8 125 327.2 129.4M326.7 129.4Q324.7 133.9 320.4 135.8Q316 137.7 311.1 136.1Q306.3 134.5 304.7 129.7Q303 125 305.3 120.6Q307.5 116.3 311.8 113.7Q316 111.1 320.3 113.1Q324.7 115.1 326.7 120.1Q328.7 125 326.7 129.4" fill="none" stroke="#DBD8CF" stroke-width="1.5" stroke-linecap="round"></path><path d="M320.2 126Q319.5 127.1 317.8 128Q316 128.9 314.8 128.6Q313.5 128.3 312.6 126.7Q311.6 125 312.2 123.3Q312.8 121.5 314.4 120.9Q316 120.3 317.7 120.9Q319.4 121.5 320.2 123.2Q320.9 125 320.2 126M319.7 126.5Q319.1 128 317.5 128.4Q316 128.8 314.3 128.1Q312.7 127.3 312.4 126.1Q312.1 125 312.5 123.4Q312.9 121.9 314.4 121.6Q316 121.4 317.5 121.6Q318.9 121.9 319.7 123.4Q320.4 125 319.7 126.5" fill="none" stroke="#DBD8CF" stroke-width="1.5" stroke-linecap="round"></path><path d="M316.4 121.2C315.7 117.5 316.3 114.3 316.2 113.5M316 120.8C316.5 118 316.2 114.2 315.5 113.2" fill="none" stroke="#DBD8CF" stroke-width="1.5" stroke-linecap="round"></path><path d="M312.3 126.5C309 128.3 307.8 129.4 305.8 131M312.9 126.7C309.2 128.2 307 130.3 305.1 130.7" fill="none" stroke="#DBD8CF" stroke-width="1.5" stroke-linecap="round"></path><path d="M320 127.6C322.1 128.9 324.3 129.9 326.6 130.9M319.8 126.6C323.1 129 323.8 129.6 326.2 131.6" fill="none" stroke="#DBD8CF" stroke-width="1.5" stroke-linecap="round"></path></g><text x="137" y="193" font-size="19" fill="#DBD8CF">доверенный харнесс</text><path d="M499 73.5C498.9 120.1 498 150.3 498.8 167M499.3 72.9C500.6 111.9 501.7 149.2 499.6 167.6" fill="none" stroke="#DBD8CF" stroke-width="4" stroke-linecap="round"></path><text x="500" y="192" font-size="18" fill="#DBD8CF" text-anchor="middle">граница</text><text x="500" y="216" font-size="18" fill="#DBD8CF" text-anchor="middle">доверия</text><path d="M350.8 123.6Q430.9 111.2 482.4 112.2Q533.9 113.3 574.9 117.5L615.9 121.8M352.9 123.8Q429.9 112 482.5 112.6Q535.2 113.2 574.6 118.1L614 122.9M615.3 122.9C612.1 123.9 607 125.4 604.3 125.8M614.7 123C609.9 124.4 607.1 124.9 604.6 125.9M615.2 123.1C612.2 121.7 608.9 119.1 605.3 117.5M615.2 123.1C610.7 119.7 608.3 118.8 605.9 117.2" fill="none" stroke="#DBD8CF" stroke-width="2.2" stroke-linecap="round"></path><rect x="621.5" y="79.5" width="157" height="79" rx="0" fill="#1A1E25"></rect><path d="M620 76.5C676.4 77.1 751.7 75.3 782.2 77M618.1 78.7C691.2 76.8 739.9 76.1 780.6 78.4M780.5 75.1C781.3 107.8 780.3 135.1 779.8 160.6M780.8 77.7C778.7 103.3 778.9 141.6 780.2 162.4M780.6 161.2C728.4 162.1 641.2 158 619.2 160.2M782.4 160.8C699.9 161.1 658.2 159.4 618.9 158.8M619.9 161.8C620.6 133.1 621 94.9 619.9 78.4M619.2 160.7C621.3 131.7 622.2 92.5 618.5 77.4" fill="none" stroke="#DBD8CF" stroke-width="1.5" stroke-linecap="round"></path><text x="649" y="131" font-size="27" fill="#DBD8CF">VM</text><path d="M734.8 124.7Q746.2 139.5 755.2 119.8L764.1 100.1M734.4 123.6Q745.1 138.9 753.8 120.2L762.5 101.5" fill="none" stroke="#4ADE80" stroke-width="3.5" stroke-linecap="round"></path><text x="623" y="191" font-size="17" fill="#DBD8CF">недоверенная: exec,</text><text x="760" y="215" font-size="17" fill="#DBD8CF">веб-контент</text><text x="55" y="257" font-size="20" fill="#DBD8CF" stroke="#DBD8CF" stroke-width="0.8">ГДЕ ЖИВЁТ КАЖДАЯ ТУЛЗА?</text><text x="60" y="301" font-size="21" fill="#DBD8CF">1) TODO</text><path d="M719.6 283.5Q519.8 284.8 434.6 284.4Q349.4 284.1 283.1 283.4L216.9 282.8M719.8 283.8Q520.1 284 434.6 283.8Q349.1 283.5 283.5 283.4L218 283.3M217.8 284C222.6 282 226 280.4 227.7 279.4M218 284.2C221.4 282.5 224.5 281.4 228.3 279.3M218 283.9C221.8 285.4 224.3 287 228 288.7M218 284.3C223.2 286.1 225.4 287.6 228 288.5" fill="none" stroke="#DBD8CF" stroke-width="2" stroke-linecap="round"></path><text x="735" y="291" font-size="19" fill="#DBD8CF">стейт харнесса</text><text x="60" y="347" font-size="21" fill="#DBD8CF">2) FILE R/W</text><path d="M287.4 330.2Q479.4 331.2 532.5 324.3Q585.5 317.4 652.4 317.4L719.2 317.4M286.1 329.1Q479.5 330.8 532.2 323.8Q584.9 316.9 652.8 317.5L720.6 318.1M719.7 318.3C717 319.8 712.5 321.4 709.7 322.7M720.3 317.8C715.9 319.4 712.7 321 710.3 322.8M719.8 318.3C715.3 315.5 712.1 314.6 709.7 313.7M720.2 317.7C715.3 316.2 713.4 315 710.1 313.6M287.2 330.3C291.4 328.1 294.4 326.6 297.1 325.5M286.8 330.4C290.9 328.3 294.5 326.7 297.1 325.7M287 330.1C291.6 332.1 295 333.9 297.4 334.3M287 329.9C290 331.6 295.1 333.3 296.7 334.3" fill="none" stroke="#DBD8CF" stroke-width="2" stroke-linecap="round"></path><text x="735" y="338" font-size="19" fill="#DBD8CF">по какую сторону?</text><text x="60" y="394" font-size="21" fill="#DBD8CF">3) IMAGE-GEN</text><g transform="translate(306 374) scale(-1.35 1.35) translate(-306 -374)"><ellipse cx="306" cy="374" rx="5" ry="5" fill="#1A1E25"></ellipse><path d="M309.7 375.5Q308.8 377 307.4 377.6Q306 378.3 304.6 378.2Q303.1 378.2 302.1 376.1Q301 374 301.4 371.9Q301.9 369.7 303.9 369.8Q306 369.8 308.1 369.9Q310.3 369.9 310.4 372Q310.6 374 309.7 375.5M310.7 375.7Q309.8 377.4 307.9 378Q306 378.7 304 378.1Q301.9 377.6 300.9 375.8Q299.9 374 301.5 372.3Q303.1 370.6 304.6 370.3Q306 370.1 307.9 370.2Q309.7 370.3 310.6 372.1Q311.6 374 310.7 375.7" fill="none" stroke="#F4644A" stroke-width="1.5" stroke-linecap="round"></path><path d="M311.2 378.4C315.8 382.3 322.3 390.5 326.9 392.7M309.2 379.5C316.5 383 321.6 389.6 328.4 393.3" fill="none" stroke="#F4644A" stroke-width="1.5" stroke-linecap="round"></path><path d="M319.5 389.4C318.1 391.1 316.4 392.6 315 393.5M318.6 389.1C317.4 391.2 315.3 393.9 314.5 394.2" fill="none" stroke="#F4644A" stroke-width="1.5" stroke-linecap="round"></path><path d="M323.7 393.1C322.3 394.6 320.7 397.2 320.4 398.6M324.5 393C322.7 395.3 320.6 397.2 319.8 398.2" fill="none" stroke="#F4644A" stroke-width="1.5" stroke-linecap="round"></path></g><path d="M449.9 333.7Q517.9 351.4 569.3 358.5Q620.8 365.6 667.9 365.6L715 365.6M449.5 333.8Q519.1 351.7 569.9 358.7Q620.6 365.6 667.9 366.3L715.1 367M714.1 365.7C709.6 367.7 706.5 369.1 704.1 370.1M714 366.1C710.9 367.6 706.8 369.5 704.3 370.3M714.1 366.3C710.8 364.6 707.3 363 704.1 361.8M714.1 365.8C710.1 364.3 707.1 363.4 703.9 361.7" fill="none" stroke="#DBD8CF" stroke-width="2" stroke-linecap="round" stroke-dasharray="6 5"></path><text x="735" y="385" font-size="19" fill="#DBD8CF">аутпут падает сюда</text><text x="60" y="441" font-size="21" fill="#DBD8CF">4) PY-EVAL</text><path d="M262.3 440.4Q263.5 428.9 266.1 428.1Q268.7 427.4 273.1 428.2Q277.4 429.1 278.3 431.3L279.2 433.6M262.3 438.8Q261.7 429.6 264.5 428.3Q267.3 426.9 271.8 427.1Q276.2 427.2 277.4 429.6L278.6 432.1" fill="none" stroke="#44CFFF" stroke-width="3.5" stroke-linecap="round"></path><path d="M280.6 433.5Q279.4 443 276.1 444.9Q272.8 446.7 269 445.5Q265.2 444.4 264.4 442L263.7 439.5M279.7 433.5Q280.5 441.3 277.4 443.7Q274.2 446.1 269.7 444.5Q265.3 442.9 265.1 440.4L264.9 438" fill="none" stroke="#F5B04A" stroke-width="3.5" stroke-linecap="round"></path><path d="M267 429.7Q267.4 430.4 266.7 430.4Q266 430.4 265.1 430.6Q264.2 430.8 264.5 429.9Q264.9 429 264.9 428.3Q264.8 427.5 265.4 427.9Q266 428.2 266.9 428.2Q267.8 428.2 267.1 428.6Q266.5 429 267 429.7M268.1 429.3Q267.7 429.6 266.9 429.8Q266 430.1 265.5 430.2Q265 430.3 264.2 429.7Q263.4 429 264 428.2Q264.6 427.3 265.3 427Q266 426.7 266.9 426.9Q267.8 427.2 268.2 428.1Q268.5 429 268.1 429.3" fill="none" stroke="#121419" stroke-width="2" stroke-linecap="round"></path><path d="M276.8 443.3Q276.3 443.5 276.1 444Q276 444.4 275.2 444.2Q274.4 443.9 274.9 443.5Q275.3 443 275.5 442.6Q275.7 442.3 275.8 442.3Q276 442.3 276.5 442.5Q277 442.7 277.2 442.8Q277.3 443 276.8 443.3M276.7 443.4Q276.8 443.7 276.4 443.9Q276 444.1 275.8 443.8Q275.6 443.6 275.4 443.3Q275.3 443 275.3 442.7Q275.3 442.5 275.6 441.6Q276 440.8 276.2 441.7Q276.4 442.6 276.5 442.8Q276.6 443 276.7 443.4" fill="none" stroke="#121419" stroke-width="2" stroke-linecap="round"></path><path d="M299.1 425.5Q448.8 413.3 522.2 411.6Q595.6 410 657.3 417.9L719 425.9M300.6 426.9Q450.4 412.5 522.8 411.3Q595.2 410 657.4 417.8L719.6 425.5M720.1 425.8C716.6 427 711.4 428 709.7 429.3M720.2 426C715.3 427.4 711.4 428.5 709.6 429.5M719.6 425.7C716.5 424.4 713.1 421.4 710.3 420.6M720 426.1C717 424.7 713.3 422.3 710.7 420.2" fill="none" stroke="#DBD8CF" stroke-width="2" stroke-linecap="round"></path><text x="735" y="433" font-size="19" fill="#DBD8CF">стейт exec</text><text x="374" y="369" font-size="16" fill="#44CFFF" transform="rotate(-1 374 369)">нужен секрет</text><path d="M433.2 378.3Q387.5 368.1 360.8 373.4L334 378.6M431.2 378Q387.6 366.2 361 372.4L334.4 378.7M334.8 379.1C339.4 376.2 342.1 373.8 343.8 372.4M334.9 379.1C338.7 376.2 341.3 374.3 343.5 372.3M334.7 379.3C340 379.9 342.3 380.6 345.6 381.4M335.1 379C339.3 380.2 342.2 380.3 345.6 381.3" fill="none" stroke="#44CFFF" stroke-width="1.8" stroke-linecap="round"></path><path d="M438.4 459.4Q383.8 428.7 369 412.8Q354.2 396.9 356.7 383.6Q359.1 370.3 342.6 356.6Q326.1 342.9 293 332.6Q259.8 322.4 232.9 312.7L206 303M437.4 458.1Q384.4 429.5 369.5 413.2Q354.7 397 357.3 383.9Q359.8 370.8 342 357.5Q324.2 344.3 291.6 333.4Q259.1 322.5 231.4 311.9L203.7 301.2M204.7 301.9C209.5 301.4 214.3 301.4 216.2 301.2M205.2 301.8C208.7 302.3 213.1 301.8 216.2 301.6M205.1 301.9C209 305.5 210.5 307.2 212.5 309.7M204.9 302.3C207.8 304.5 210.5 307.6 212.8 309.8" fill="none" stroke="#F4644A" stroke-width="2.4" stroke-linecap="round"></path><path d="M560.8 458.5Q629.3 419.9 671.2 399.8L713.2 379.8M561 458.4Q630.1 420.6 672.2 401.2L714.3 381.8M713.9 380.9C711 385 709 387.3 706.5 389.1M714.2 380.7C711.5 384 709.3 387.1 706.8 389.3M714.3 380.9C709.4 381 704.8 380.9 702.8 381.4M714.1 381.3C709 381.3 704.9 381.1 702.8 381.2" fill="none" stroke="#F4644A" stroke-width="2.4" stroke-linecap="round"></path><text x="500" y="486" font-size="17" fill="#F4644A" text-anchor="middle" stroke="#F4644A" stroke-width="0.8">ПРОГРАММНОЕ</text><text x="500" y="518" font-size="17" fill="#F4644A" text-anchor="middle" stroke="#F4644A" stroke-width="0.8">ИСПОЛЬЗОВАНИЕ ТУЛЗ</text><text x="725" y="509" font-size="20" fill="#F4644A" stroke="#F4644A" stroke-width="0.8">КОНФЛИКТ!</text><path d="M887.1 454.6Q897.4 460.8 899.2 466.6Q901.1 472.4 898 478Q894.9 483.6 892.5 487.5Q890 491.5 893.5 496.3Q896.9 501.2 899.1 509.1Q901.2 516.9 897.9 523Q894.6 529 890.2 530.7L885.8 532.4M887.1 455.7Q896.3 460.5 898.2 466.3Q900 472.1 897.3 478.1Q894.6 484 892.5 488.1Q890.4 492.2 894.6 496.3Q898.8 500.4 898.9 508.6Q899.1 516.7 896.9 523.3Q894.7 529.8 890.1 531.4L885.4 533.1" fill="none" stroke="#F4644A" stroke-width="3" stroke-linecap="round"></path><text x="918" y="516" font-size="28" fill="#F4644A" stroke="#F4644A" stroke-width="0.8">?</text></svg>