<svg class="st-sketch" viewBox="0 0 1000 610" role="img" aria-label="Модель ConVar: сервер владеет sv_cheats, sv_gravity, mp_friendlyfire и защищённым sv_password; REPLICATED насильно кладёт серверные значения в каждую read-only клиентскую копию, USERINFO отправляет клиентский name наверх, ARCHIVE сохраняет cl_interp в config.cfg, CHEAT блокирует r_drawothermodels без sv_cheats = 1, а каждое изменение штампуется в .dem — реплей остаётся честным." font-family="'Excalifont','Caveat','Segoe Print','Comic Sans MS',cursive"><defs><pattern id="cv-dots" width="22" height="22" patternUnits="userSpaceOnUse"><circle cx="11" cy="11" r="1.1" fill="#2E333C"></circle></pattern></defs><rect width="1000" height="610" fill="#121419"></rect><rect width="1000" height="610" fill="url(#cv-dots)"></rect><text x="500" y="48" font-size="26" fill="#DBD8CF" text-anchor="middle" letter-spacing="2" stroke="#DBD8CF" stroke-width="0.8">ФЛАГИ, А НЕ САНТЕХНИКА</text><path d="M298.6 61.4C472.2 60.1 563.9 63.3 701.2 58.7M300.6 59.3C431.2 59.1 623.3 62.4 700.6 60.6" fill="none" stroke="#DBD8CF" stroke-width="2" stroke-linecap="round"></path><text x="500" y="88" font-size="13.5" fill="#9AA2AD" text-anchor="middle">ConVar("sv_gravity", "800", <tspan fill="#44CFFF">REPLICATED</tspan> | <tspan fill="#F5B04A">NOTIFY</tspan>, "World gravity.")</text><rect x="49.5" y="113.5" width="369" height="281" rx="0" fill="#1A1E25"></rect><path d="M48 112.9C205.4 109.6 304.8 108.5 422.6 110.8M46.6 111.7C169.4 112.6 326.8 113.9 422.3 111.1M421.1 110.3C418.9 233 421.4 330.8 421.5 395.7M420.2 111.7C418.7 232.1 422.5 333.7 420.8 397.7M421.4 394.7C281.3 393.4 158.8 395.7 47.6 396M421.3 397.1C283.5 391.7 173.2 396.9 47.5 395.4M47.3 398.4C45.5 261.9 45.7 165.6 47 111M47.2 398.5C47.2 272.3 46.2 162.1 47.6 111.3" fill="none" stroke="#DBD8CF" stroke-width="1.5" stroke-linecap="round" stroke-dasharray="7 5"></path><text x="68" y="144" font-size="17" fill="#DBD8CF" stroke="#DBD8CF" stroke-width="0.8">СЕРВЕР</text><text x="158" y="144" font-size="15" fill="#4ADE80">(один авторитет)</text><path d="M265.1 134.2Q273.7 143.7 282.5 132.4L291.3 121.1M265.1 135.4Q273.2 142.9 283.2 132.6L293.1 122.2" fill="none" stroke="#4ADE80" stroke-width="2.5" stroke-linecap="round"></path><text x="68" y="186" font-size="14.5" fill="#DBD8CF">sv_cheats <tspan fill="#9AA2AD">0</tspan></text><text x="68" y="226" font-size="14.5" fill="#DBD8CF">sv_gravity <tspan fill="#9AA2AD">800</tspan></text><text x="68" y="266" font-size="14.5" fill="#DBD8CF">mp_friendlyfire <tspan fill="#9AA2AD">0</tspan></text><text x="68" y="306" font-size="14.5" fill="#DBD8CF">sv_password <tspan fill="#9AA2AD">•••</tspan></text><text x="400" y="186" font-size="13" fill="#DBD8CF" text-anchor="end"><tspan fill="#44CFFF">REPLICATED</tspan> <tspan fill="#F5B04A">NOTIFY</tspan></text><text x="400" y="226" font-size="13" fill="#DBD8CF" text-anchor="end"><tspan fill="#44CFFF">REPLICATED</tspan> <tspan fill="#F5B04A">NOTIFY</tspan></text><text x="400" y="266" font-size="13" fill="#44CFFF" text-anchor="end">REPLICATED</text><text x="400" y="306" font-size="13" fill="#9AA2AD" text-anchor="end">PROTECTED</text><rect x="581.5" y="113.5" width="369" height="281" rx="18" fill="#1A1E25"></rect><path d="M599.1 112C719.4 115.7 839.5 112.7 934.7 112.6M596.7 113.1C724.8 111.1 872.5 113.8 934.5 111.4M953 128.9C955 242.2 952.6 314.5 952.2 378.3M951.1 130.9C949.3 224.4 952.7 322.4 950.9 378.9M933.1 395.1C806.9 397.4 673.8 398.2 598 396.7M934.6 394.8C811.5 397.1 684 394.3 599.2 396.2M581.4 379C578 261.1 583.9 171.3 580 130.9M579.7 378.9C580.6 297 577.5 187.7 580.5 129.9M933.8 112.6Q950.8 110.6 950.8 131.4M951.9 377.8Q952.5 395.5 933.3 395.8M597.7 395.8Q579.8 395.6 581 376.8M581.4 129.4Q579.7 111.7 599.3 112.8" fill="none" stroke="#F4644A" stroke-width="1.5" stroke-linecap="round"></path><text x="600" y="144" font-size="17" fill="#F4644A" stroke="#F4644A" stroke-width="0.8">КЛИЕНТ</text><text x="688" y="144" font-size="15" fill="#F4644A">(каждый игрок)</text><text x="600" y="186" font-size="14.5" fill="#44CFFF">sv_cheats <tspan fill="#9AA2AD">0</tspan></text><text x="600" y="226" font-size="14.5" fill="#44CFFF">sv_gravity <tspan fill="#9AA2AD">800</tspan></text><text x="600" y="266" font-size="14.5" fill="#DBD8CF">cl_interp <tspan fill="#9AA2AD">0.031</tspan></text><text x="600" y="306" font-size="14.5" fill="#DBD8CF">r_drawothermodels <tspan fill="#9AA2AD">1</tspan></text><text x="600" y="346" font-size="14.5" fill="#DBD8CF">name <tspan fill="#9AA2AD">"can"</tspan></text><text x="932" y="186" font-size="12.5" fill="#9AA2AD" text-anchor="end">только чтение</text><text x="932" y="226" font-size="12.5" fill="#9AA2AD" text-anchor="end">только чтение</text><text x="932" y="266" font-size="13" fill="#A78BFA" text-anchor="end">ARCHIVE</text><text x="932" y="306" font-size="13" fill="#F4644A" text-anchor="end">CHEAT</text><text x="932" y="346" font-size="13" fill="#4ADE80" text-anchor="end">USERINFO</text><text x="600" y="322" font-size="12" fill="#F4644A" transform="rotate(-1 600 322)">недоступно без sv_cheats = 1</text><path d="M425.3 180C496.7 180.3 544.4 182.7 574.8 181.2M423.8 181.9C482.7 180.1 524.7 181.7 576 180.5M575.9 180.2C571.1 181.8 569.2 183.5 566 184.8M575.9 180.1C572.8 181.6 567.5 183.7 565.7 184.5M575.7 179.8C571.8 178.5 568.2 176.8 565.7 175.4M576.1 179.9C572.3 178.1 567.9 176.1 565.7 175.7" fill="none" stroke="#44CFFF" stroke-width="1.5" stroke-linecap="round"></path><path d="M422.9 218.9C489.7 218.5 543.6 219.1 574.3 221.3M424.6 220.3C476.8 220.3 533.3 222.3 576 219.3M575.9 220.1C572.5 221.4 568.6 222.9 566.2 224.7M575.7 219.9C571.9 222.2 569 223.3 565.7 224.1M575.8 219.8C572 218.7 568.5 216.5 566.2 215.5M576.3 220C571.5 217.7 568.5 216.4 565.8 215.8" fill="none" stroke="#44CFFF" stroke-width="1.5" stroke-linecap="round"></path><text x="500" y="198" font-size="13" fill="#44CFFF" text-anchor="middle" stroke="#44CFFF" stroke-width="0.8" transform="rotate(-1 500 198)">REPLICATED</text><text x="500" y="212" font-size="12" fill="#9AA2AD" text-anchor="middle">форсится всем клиентам</text><path d="M576.2 339.6C500.3 339.1 463.3 341.4 422.2 341.3M575.1 340.5C506.4 339.2 463.6 341.3 426 341M423.8 339.8C428.5 338.2 431.1 337.2 433.9 335.2M423.7 339.9C428.6 337.9 431.9 337 433.8 335.8M424.3 340C427.9 341.7 431.4 343.2 433.8 344.5M423.8 340.2C427.9 341.8 431.3 343.5 434.3 344.4" fill="none" stroke="#4ADE80" stroke-width="1.5" stroke-linecap="round"></path><text x="500" y="328" font-size="12.5" fill="#4ADE80" text-anchor="middle">USERINFO · наверх</text><path d="M956.9 179.7Q986.5 222.4 985.7 241.4Q984.9 260.4 972.4 278.9L959.9 297.4M958.6 178.8Q985.8 221.9 986.1 240.8Q986.5 259.6 973.6 278.2L960.7 296.7M959.7 298.3C960.8 293.8 961.4 290.6 962.2 287.4M960.1 298.3C960.9 293.8 961.5 289.9 962 287.2M960.1 297.8C964.1 295.5 966.4 294.5 969.2 291.9M960.1 298.2C962.9 296.1 966.4 294.2 969.5 292.4" fill="none" stroke="#F4644A" stroke-width="1.5" stroke-linecap="round" stroke-dasharray="6 5"></path><path d="M234.7 394C232.6 411.1 235 430.5 235.7 439.9M234.7 395.6C235.8 417.6 235.1 426.4 233.7 437.6M233.9 438.1C232.1 433.7 230.9 430.9 229.6 427.8M234.2 438.1C232.3 435 231 431.2 229.7 427.6M234.1 438.1C236.2 433 237.7 429.5 238.5 427.7M234.3 438.1C236.2 433.4 237.9 429.3 238.8 427.6" fill="none" stroke="#A78BFA" stroke-width="1.5" stroke-linecap="round"></path><rect x="175.5" y="443.5" width="117" height="41" rx="0" fill="#1A1E25"></rect><path d="M172.9 443.3C231.4 441.9 266.6 442.4 294.9 441.7M172.7 441.5C220.6 444.3 261.9 441.4 293.1 440.6M294.9 440.7C294.3 454.6 294.2 474.1 293.9 487.7M293.7 441.1C296.1 461 292.7 471.2 294 487.7M293.4 485.7C235.7 487.8 210 486.6 173.3 486.7M294 486.3C256.3 486.1 206.3 485.2 172.7 486.1M174 484.8C174.1 468.6 173.4 453.7 173.3 443.3M174.1 486.5C174.8 469.2 174.6 448.4 172.9 441.5" fill="none" stroke="#A78BFA" stroke-width="1.5" stroke-linecap="round"></path><text x="234" y="470" font-size="14" fill="#A78BFA" text-anchor="middle" stroke="#A78BFA" stroke-width="0.8">.dem</text><text x="252" y="414" font-size="12.5" fill="#9AA2AD" transform="rotate(-0.5 252 414)">каждое изменение штампуется в демку,</text><text x="252" y="429" font-size="12.5" fill="#9AA2AD" transform="rotate(-0.5 252 429)">реплей остаётся честным</text><path d="M766.4 396.4C767.2 411 765.9 432.1 765.1 438.5M765.9 396.9C767.7 410.3 767.4 431.5 766.2 437.9M766.2 438C764.4 434.1 762.6 430.6 761.5 427.7M765.9 438.1C764.8 434.6 762.7 430.9 761.3 427.9M765.8 437.9C767.4 434.9 769.3 430.5 770.4 428.1M766 438.3C767.2 434.8 768.9 431.3 770.4 428.3" fill="none" stroke="#A78BFA" stroke-width="1.5" stroke-linecap="round"></path><rect x="697.5" y="443.5" width="137" height="41" rx="0" fill="#1A1E25"></rect><path d="M693.8 442.6C759.2 442 809.3 443.7 838.5 441.2M694.1 441.8C738.7 442.9 790.3 442.4 838.6 441.8M835.5 441.5C837 463 834.6 480.1 836.2 486.8M837.4 439.5C836.1 454.5 836.6 479.3 836.3 486.4M836.7 485.9C774.1 484.3 740.2 484.7 696.4 487.2M837.4 485.8C770.2 486.7 729.3 489.2 694.7 485.8M694.9 487.4C695.3 469.2 696.8 451.8 696 442.8M696.8 486.5C694.7 465.9 698 453.2 696.4 441.9" fill="none" stroke="#A78BFA" stroke-width="1.5" stroke-linecap="round"></path><text x="766" y="470" font-size="14" fill="#A78BFA" text-anchor="middle" stroke="#A78BFA" stroke-width="0.8">config.cfg</text><text x="784" y="414" font-size="12.5" fill="#9AA2AD" transform="rotate(-0.5 784 414)">ARCHIVE-переменные — на диск,</text><text x="784" y="429" font-size="12.5" fill="#9AA2AD" transform="rotate(-0.5 784 429)">остальное — эфемерно</text><text x="500" y="520" font-size="13" fill="#9AA2AD" text-anchor="middle"><tspan fill="#F5B04A">NOTIFY</tspan> = изменение объявляется всем игрокам     <tspan fill="#9AA2AD">PROTECTED</tspan> = значение не покидает сервер</text><path d="M47.1 539.5C346.6 538.5 813.4 542.6 953.2 541M48.8 540.5C471.2 538.9 805.4 542.3 951.2 540.2" fill="none" stroke="#9AA2AD" stroke-width="1" stroke-linecap="round"></path><text x="500" y="572" font-size="15.5" fill="#DBD8CF" text-anchor="middle"><tspan fill="#F4644A">set() через god-объект + dirty-трекинг</tspan>  ->  <tspan fill="#4ADE80">флаги там, где родилась переменная</tspan></text><text x="952" y="600" font-size="13" fill="#9AA2AD" text-anchor="end" transform="rotate(-1 952 600)">одно хранилище. остальное решают флаги.</text></svg>